<svg xmlns="http://www.w3.org/2000/svg" viewBox="0 0 340 142" width="340" height="142" role="img" aria-label="Raize">
<title>Raize</title>
<style>
  text{font-family:-apple-system,BlinkMacSystemFont,'Segoe UI',Helvetica,Arial,sans-serif}
  .t{font-size:15.5px;font-weight:700;fill:#E6EDF3}
  .d{font-size:12px;fill:#8B949E}
  .c{font-size:10.5px;fill:#A5B4FC;text-anchor:middle}
  .m{font-size:11px;fill:#7D8590}
  .e{text-anchor:end}
</style>
<defs><clipPath id="card"><rect x="5.5" y="0.5" width="329" height="133" rx="10"/></clipPath></defs><rect x="5.5" y="0.5" width="329" height="133" rx="10" fill="#0D1117" stroke="#30363D"/><rect x="5.5" y="0.5" width="4" height="133" fill="#818CF8" clip-path="url(#card)"/><text x="25" y="31" class="t">Raize</text><text x="25" y="54" class="d">Reconstruction planning for disaster</text><text x="25" y="70" class="d">zones. Sparse video rebuilt into</text><text x="25" y="86" class="d">navigable 3D over UNOSAT damage data.</text><rect x="25" y="98" width="61" height="20" rx="5" fill="#21262D"/><text x="56" y="112" class="c">Three.js</text><rect x="92" y="98" width="49" height="20" rx="5" fill="#21262D"/><text x="117" y="112" class="c">Gemini</text><rect x="147" y="98" width="55" height="20" rx="5" fill="#21262D"/><text x="175" y="112" class="c">Next.js</text><circle cx="231" cy="107" r="4.5" fill="#3178C6"/><text x="240" y="111" class="m">TypeScript</text><g transform="translate(285 12)"><rect x="0.5" y="0.5" width="29" height="25" rx="7" fill="#818CF8" stroke="none"/><g transform="translate(8.0 6.0) scale(0.5833333333333334)"><path fill="#0D1117" d="M14 3v2h3.59l-9.83 9.83 1.41 1.41L19 6.41V10h2V3h-7zM5 5h5V3H5c-1.1 0-2 .9-2 2v14c0 1.1.9 2 2 2h14c1.1 0 2-.9 2-2v-5h-2v5H5V5z"/></g></g>
</svg>
